HIERARCHY
ROOT Hips
{
	OFFSET 0.00000 0.00000 0.00000
	CHANNELS 6 Xposition Yposition Zposition Zrotation Yrotation Xrotation 
	JOINT LHipJoint
	{
		OFFSET 0 0 0
		CHANNELS 3 Zrotation Yrotation Xrotation
		JOINT LeftUpLeg
		{
			OFFSET 1.36337 -1.57426 1.11036
			CHANNELS 3 Zrotation Yrotation Xrotation
			JOINT LeftLeg
			{
				OFFSET 2.38468 -6.55187 0.00000
				CHANNELS 3 Zrotation Yrotation Xrotation
				JOINT LeftFoot
				{
					OFFSET 2.37166 -6.51609 0.00000
					CHANNELS 3 Zrotation Yrotation Xrotation
					JOINT LeftToeBase
					{
						OFFSET 0.29078 -0.79891 2.01393
						CHANNELS 3 Zrotation Yrotation Xrotation
						End Site
						{
							OFFSET 0.00000 -0.00000 1.07924
						}
					}
				}
			}
		}
	}
	JOINT RHipJoint
	{
		OFFSET 0 0 0
		CHANNELS 3 Zrotation Yrotation Xrotation
		JOINT RightUpLeg
		{
			OFFSET -1.36349 -1.57426 1.11036
			CHANNELS 3 Zrotation Yrotation Xrotation
			JOINT RightLeg
			{
				OFFSET -2.29562 -6.30717 0.00000
				CHANNELS 3 Zrotation Yrotation Xrotation
				JOINT RightFoot
				{
					OFFSET -2.40985 -6.62100 0.00000
					CHANNELS 3 Zrotation Yrotation Xrotation
					JOINT RightToeBase
					{
						OFFSET -0.23197 -0.63733 1.92232
						CHANNELS 3 Zrotation Yrotation Xrotation
						End Site
						{
							OFFSET -0.00000 -0.00000 1.01562
						}
					}
				}
			}
		}
	}
	JOINT LowerBack
	{
		OFFSET 0 0 0
		CHANNELS 3 Zrotation Yrotation Xrotation
		JOINT Spine
		{
			OFFSET -0.08565 2.03602 -0.24562
			CHANNELS 3 Zrotation Yrotation Xrotation
			JOINT Spine1
			{
				OFFSET -0.00036 2.05693 0.00216
				CHANNELS 3 Zrotation Yrotation Xrotation
				JOINT Neck
				{
					OFFSET 0 0 0
					CHANNELS 3 Zrotation Yrotation Xrotation
					JOINT Neck1
					{
						OFFSET -0.03664 1.69515 0.31789
						CHANNELS 3 Zrotation Yrotation Xrotation
						JOINT Head
						{
							OFFSET 0.00932 1.70181 -0.46013
							CHANNELS 3 Zrotation Yrotation Xrotation
							End Site
							{
								OFFSET 0.01243 1.77620 -0.19377
							}
						}
					}
				}
				JOINT LeftShoulder
				{
					OFFSET 0 0 0
					CHANNELS 3 Zrotation Yrotation Xrotation
					JOINT LeftArm
					{
						OFFSET 3.74344 0.81315 -0.36647
						CHANNELS 3 Zrotation Yrotation Xrotation
						JOINT LeftForeArm
						{
							OFFSET 4.97185 -0.00000 -0.00000
							CHANNELS 3 Zrotation Yrotation Xrotation
							JOINT LeftHand
							{
								OFFSET 3.35811 -0.00000 0.00000
								CHANNELS 3 Zrotation Yrotation Xrotation
								JOINT LeftFingerBase
								{
									OFFSET 0 0 0
									CHANNELS 3 Zrotation Yrotation Xrotation
									JOINT LeftHandIndex1
									{
										OFFSET 0.62278 -0.00000 0.00000
										CHANNELS 3 Zrotation Yrotation Xrotation
										End Site
										{
											OFFSET 0.50210 -0.00000 0.00000
										}
									}
								}
								JOINT LThumb
								{
									OFFSET 0 0 0
									CHANNELS 3 Zrotation Yrotation Xrotation
									End Site
									{
										OFFSET 0.50976 -0.00000 0.50976
									}
								}
							}
						}
					}
				}
				JOINT RightShoulder
				{
					OFFSET 0 0 0
					CHANNELS 3 Zrotation Yrotation Xrotation
					JOINT RightArm
					{
						OFFSET -3.75385 0.50666 -0.06525
						CHANNELS 3 Zrotation Yrotation Xrotation
						JOINT RightForeArm
						{
							OFFSET -4.96493 -0.00000 -0.00000
							CHANNELS 3 Zrotation Yrotation Xrotation
							JOINT RightHand
							{
								OFFSET -3.34929 -0.00000 0.00000
								CHANNELS 3 Zrotation Yrotation Xrotation
								JOINT RightFingerBase
								{
									OFFSET 0 0 0
									CHANNELS 3 Zrotation Yrotation Xrotation
									JOINT RightHandIndex1
									{
										OFFSET -0.63804 -0.00000 0.00000
										CHANNELS 3 Zrotation Yrotation Xrotation
										End Site
										{
											OFFSET -0.51441 -0.00000 0.00000
										}
									}
								}
								JOINT RThumb
								{
									OFFSET 0 0 0
									CHANNELS 3 Zrotation Yrotation Xrotation
									End Site
									{
										OFFSET -0.52226 -0.00000 0.52226
									}
								}
							}
						}
					}
				}
			}
		}
	}
}
MOTION
Frames: 7
Frame Time: .0083333
-21.6392 16.779 -1.2431 0 0 0 0 0 0 -21 0 0 0 0 0 0 0 0 0 0 0 0 0 0 21 0 0 0 0 0 0 0 0 0 0 0 0 0 0 0 0 0 0 0 0 0 0 -16 0 0 21 0 0 11 0 0 0 -8 0 0 0 0 0 0 0 0 0 0 0 0 0 0 0 0 0 0 0 0 8 0 0 0 0 0 0 0 0 0 0 0 0 0 0 0 0 0
-21.6392 16.7790 -1.2431 176.5820 35.5168 -146.9030 0.0000 0.0000 0.0000 -15.4199 -10.4639 -37.6674 1.4269 7.5534 21.3657 0.2949 22.0571 -32.9901 1.0887 -6.6312 -18.6272 0.0000 0.0000 0.0000 35.5377 -31.8369 -55.9440 -0.0075 -0.5584 1.5345 0.0007 8.9968 12.8094 -2.1547 -9.1811 26.3634 -3.2827 -0.2187 -43.5193 -1.0339 2.9279 -2.8039 2.2134 1.5704 17.6674 12.6356 14.6373 -14.4307 -12.0914 21.3473 20.1660 -2.8454 9.7378 11.6559 -0.0000 0.0000 0.0000 -88.8101 -5.0786 21.2022 9.8562 -16.5144 -1.4338 -0.0000 -0.0000 5.1042 26.3502 -10.7400 -5.2737 -7.1250 0.0000 -0.0000 -0.5106 18.0288 0.3275 -0.0000 0.0000 0.0000 85.1056 -5.0073 27.1420 -29.3987 40.3724 -11.0180 0.0000 -0.0000 -22.5115 31.7298 -23.8835 -14.0550 7.1250 -0.0000 -0.0000 54.4339 -46.3448 -2.6007
-21.6052 16.7947 -1.2176 177.4220 35.2435 -146.6000 0.0000 0.0000 0.0000 -13.5631 -12.1720 -36.6732 1.3979 7.4795 21.1440 0.4126 23.1443 -35.0504 0.8363 -5.8336 -16.3025 0.0000 0.0000 0.0000 36.2974 -31.7618 -55.5135 -0.0078 -0.5716 1.5708 0.6571 15.2313 11.6230 -0.1435 -2.4412 6.7266 -2.4781 -0.0319 -43.1613 -0.7978 2.6921 -2.8758 1.9304 1.5226 17.4904 12.6984 14.5906 -14.3111 -12.2316 21.3340 20.1774 -2.9127 9.7321 11.6629 0.0000 -0.0000 0.0000 -89.1450 -4.9787 22.0340 9.9729 -16.6971 -1.4671 -0.0000 -0.0000 4.1503 26.6341 -11.0923 -5.5111 -7.1250 0.0000 -0.0000 -0.3343 17.6093 0.2175 0.0000 -0.0000 0.0000 84.9675 -5.3950 28.3008 -28.7725 39.8177 -10.6147 0.0000 -0.0000 -19.7861 25.9455 -22.7430 -10.6529 7.1250 -0.0000 -0.0000 49.7401 -46.4341 -2.3540
-21.5649 16.7981 -1.1900 178.3500 35.0714 -146.3600 0.0000 0.0000 0.0000 -12.0440 -12.9200 -36.1092 1.4259 7.5508 21.3579 0.5782 23.5006 -36.3953 0.7245 -5.4387 -15.1641 0.0000 0.0000 0.0000 36.0793 -33.1869 -53.6411 0.0000 0.0000 -0.0000 0.5994 14.9555 12.3071 -0.1443 -2.4478 6.7451 -1.5507 0.2659 -42.8018 -0.6469 2.5502 -2.8695 1.5342 1.5137 17.4096 12.9631 14.5183 -14.0510 -12.4283 21.2114 19.9846 -3.0627 9.6932 11.5826 0.0000 -0.0000 0.0000 -89.2630 -4.8834 23.1107 10.0608 -16.8347 -1.4925 -0.0000 -0.0000 2.9857 26.9645 -11.8888 -5.9832 -7.1250 0.0000 -0.0000 -0.1599 16.6897 0.1072 0.0000 -0.0000 0.0000 85.0705 -5.8567 29.3487 -28.3161 39.4056 -10.3237 0.0000 -0.0000 -16.9732 20.1245 -22.7604 -8.0688 7.1250 -0.0000 -0.0000 45.5181 -47.3438 -3.3046
-21.5166 16.7967 -1.1554 179.4390 34.7742 -146.1590 0.0000 0.0000 0.0000 -10.7280 -12.7422 -35.7276 1.4535 7.6205 21.5671 0.7406 23.2245 -36.9269 0.6977 -5.3395 -14.8794 0.0000 0.0000 0.0000 36.9025 -33.1271 -52.9285 0.0000 -0.0000 0.0000 0.6270 15.1393 12.1492 -0.1470 -2.4710 6.8093 -0.5640 0.5226 -42.3293 -0.3830 2.3008 -2.8122 1.1763 1.4542 17.3440 13.1829 14.4470 -13.9610 -12.6303 21.1211 19.9569 -3.1879 9.6534 11.5964 0.0000 -0.0000 0.0000 -89.3975 -4.8052 24.1066 10.1541 -16.9802 -1.5196 -0.0000 -0.0000 2.5083 26.9346 -12.4850 -6.2683 -7.1250 0.0000 -0.0000 -0.2251 16.0320 0.1542 0.0000 -0.0000 0.0000 85.0802 -6.2880 30.4844 -27.8203 38.9503 -10.0105 0.0000 -0.0000 -14.4665 13.7462 -23.1244 -5.4877 7.1250 -0.0000 -0.0000 40.7296 -48.5965 -4.2774
-21.4541 16.8030 -1.1225 180.5280 34.2116 -145.7630 0.0000 0.0000 0.0000 -9.5293 -12.0816 -35.8994 1.5075 7.7545 21.9707 0.7009 22.8220 -36.2467 0.6600 -5.1960 -14.4683 0.0000 0.0000 0.0000 38.0881 -33.1365 -52.5125 0.0000 0.0000 -0.0000 0.6708 15.4030 11.8041 -0.1237 -2.2672 6.2448 0.3293 0.5746 -42.1684 0.0721 1.8311 -2.7343 0.9810 1.2973 17.3925 12.8170 14.4288 -14.2102 -12.2369 21.0587 20.1720 -2.9972 9.6180 11.6186 -0.0000 0.0000 0.0000 -89.6969 -4.7386 24.7681 10.3327 -17.2583 -1.5722 -0.0000 -0.0000 2.7426 26.1631 -12.5374 -6.0871 -7.1250 0.0000 -0.0000 -0.7613 16.0648 0.5209 -0.0000 0.0000 0.0000 84.7211 -6.6613 33.6459 -27.1130 38.2867 -9.5690 0.0000 -0.0000 -9.9149 1.9035 -25.1362 -0.8088 7.1250 -0.0000 -0.0000 31.8302 -52.1443 -6.1078
-21.3929 16.8089 -1.0795 181.7420 33.5734 -145.4050 0.0000 0.0000 0.0000 -7.9280 -11.9058 -35.8236 1.5689 7.9037 22.4219 0.7144 22.7588 -36.2451 0.5347 -4.6856 -13.0140 0.0000 0.0000 0.0000 39.4043 -33.1542 -52.0239 0.0000 0.0000 -0.0000 0.7165 15.6882 11.4601 -0.0722 -1.7333 4.7693 1.3980 0.7340 -41.6969 0.4816 1.4361 -2.7308 0.6714 1.1888 17.2369 12.0222 14.4517 -14.4233 -11.1033 20.8720 20.2190 -2.5285 9.5686 11.4043 0.0000 0.0000 0.0000 -89.8885 -4.6121 25.6206 10.5554 -17.6035 -1.6389 -0.0000 -0.0000 2.5009 25.3476 -12.6646 -5.9294 -7.1250 0.0000 -0.0000 -1.3329 16.0188 0.9135 0.0000 0.0000 0.0000 84.5508 -6.1240 32.9389 -25.9761 37.1851 -8.8732 0.0000 -0.0000 -10.2693 1.0356 -25.7541 -0.4500 7.1250 -0.0000 -0.0000 31.4531 -52.8213 -6.5754
